<?xml version="1.0" encoding="utf-8"?>
<!-- Generator: Adobe Illustrator 21.0.0, SVG Export Plug-In . SVG Version: 6.00 Build 0)  -->
<svg version="1.1" id="图层_1" xmlns="http://www.w3.org/2000/svg" xmlns:xlink="http://www.w3.org/1999/xlink" x="0px" y="0px"
	 viewBox="0 0 234 51" style="enable-background:new 0 0 234 51;" xml:space="preserve">
<style type="text/css">
	.st0{fill:#F02A50;}
	.st1{fill:url(#SVGID_1_);}
</style>
<title>Group Copy 3</title>
<desc>Created with Sketch.</desc>
<g>
	<path class="st0" d="M33.1,32.1c0,7.7-6.3,14-14.1,14s-14.1-6.3-14.1-14H0.2c0,10.4,8.4,18.8,18.8,18.8s18.8-8.4,18.8-18.8H33.1z"
		/>
	<linearGradient id="SVGID_1_" gradientUnits="userSpaceOnUse" x1="-0.4564" y1="39.0304" x2="37.0112" y2="42.3084">
		<stop  offset="0" style="stop-color:#F02A50"/>
		<stop  offset="0.2" style="stop-color:#F02A50"/>
		<stop  offset="0.6054" style="stop-color:#B5203D"/>
		<stop  offset="0.6771" style="stop-color:#C22241"/>
		<stop  offset="0.8082" style="stop-color:#E3284C"/>
		<stop  offset="0.8541" style="stop-color:#F02A50"/>
		<stop  offset="1" style="stop-color:#F02A50"/>
	</linearGradient>
	<path class="st1" d="M33.1,32.1c0,7.7-6.3,14-14.1,14s-14.1-6.3-14.1-14H0.2c0,10.4,8.4,18.8,18.8,18.8s18.8-8.4,18.8-18.8H33.1z"
		/>
	<g>
		<path class="st0" d="M10,0C4.6,0,0.2,4.4,0.2,9.9v22.2h4.8V9.9c0-2.8,2.3-5.1,5.1-5.1s5.1,2.3,5.1,5.1v22.2h4.8V9.9
			C19.8,4.4,15.4,0,10,0z"/>
		<path class="st0" d="M42.9,0c-5.4,0-9.8,4.4-9.8,9.8v22.2h4.8V9.9c0-2.8,2.3-5.1,5.1-5.1c2.8,0,5.1,2.3,5.1,5.1v22.2h4.8V9.9
			C52.8,4.4,48.3,0,42.9,0z"/>
	</g>
	<path class="st0" d="M19.8,32.1c0,7.7,6.3,14,14.1,14S48,39.8,48,32.1h4.8c0,10.4-8.4,18.8-18.8,18.8s-18.8-8.4-18.8-18.8H19.8z"/>
</g>
<g>
	<path d="M77.7,11.5v17.9c0,3-0.9,5.3-2.6,7c-1.7,1.7-3.9,2.5-6.6,2.5c-2.7,0-4.9-0.8-6.7-2.5c-1.7-1.7-2.6-4-2.6-6.9V11.5h1v17.9
		c0,2.6,0.8,4.6,2.3,6.2c1.6,1.5,3.5,2.3,5.9,2.3c2.4,0,4.3-0.8,5.9-2.3c1.6-1.5,2.3-3.6,2.3-6.2V11.5H77.7z"/>
	<path d="M84.3,18.4l0.1,4c0.6-1.4,1.5-2.5,2.7-3.3c1.2-0.8,2.6-1.2,4.3-1.2c2.2,0,3.8,0.7,4.9,2.1c1.1,1.4,1.6,3.6,1.6,6.6v11.8h-1
		V26.7c0-2.8-0.5-4.7-1.5-5.9c-1-1.1-2.3-1.7-4.1-1.7c-2.1,0-3.7,0.6-4.8,1.8s-1.8,2.8-2.1,4.7v12.9h-1V28.2h-0.1c0-0.2,0-0.5,0-0.7
		c0-0.2,0-0.5,0-0.7v-8.3H84.3z"/>
	<path d="M110.1,37.9c1.7,0,3.2-0.5,4.5-1.4s1.9-2.3,1.9-4.2h0.9l0,0.1c0,2-0.7,3.5-2.2,4.7c-1.5,1.2-3.2,1.8-5.2,1.8
		c-2.6,0-4.6-0.9-6-2.8c-1.5-1.8-2.2-4.3-2.2-7.3v-0.8c0-3,0.7-5.4,2.2-7.3c1.4-1.8,3.4-2.8,6-2.8c2.1,0,3.8,0.6,5.3,1.8
		c1.4,1.2,2.1,2.9,2.1,5.1l0,0.1h-0.9c0-2-0.6-3.5-1.9-4.5c-1.3-1-2.8-1.6-4.6-1.6c-2.4,0-4.1,0.8-5.3,2.5c-1.2,1.7-1.8,3.8-1.8,6.5
		v0.8c0,2.7,0.6,4.8,1.8,6.5C105.9,37.1,107.7,37.9,110.1,37.9z"/>
	<path d="M128.6,38.9c-2.4,0-4.4-0.9-6-2.7c-1.6-1.8-2.4-4.1-2.4-6.9V28c0-2.9,0.8-5.3,2.4-7.2c1.6-1.9,3.6-2.8,6.1-2.8
		c2.2,0,4,0.7,5.3,2.2c1.3,1.5,2,3.5,2,6v1.5h-14.8V28v1.2c0,2.4,0.7,4.5,2.1,6.2c1.4,1.7,3.2,2.5,5.3,2.5c1.2,0,2.4-0.2,3.5-0.7
		c1.1-0.4,2-1,2.7-1.8l0.5,0.8c-0.7,0.8-1.6,1.4-2.7,1.9C131.5,38.7,130.1,38.9,128.6,38.9z M128.7,19.1c-2.1,0-3.8,0.7-5.1,2.2
		c-1.3,1.4-2.1,3.3-2.3,5.5l0.1,0.1H135v-0.6c0-2.1-0.6-3.8-1.7-5.1C132.2,19.7,130.7,19.1,128.7,19.1z"/>
	<path d="M148.8,19.2l-1.3-0.1c-1.8,0-3.3,0.6-4.4,1.7c-1.1,1.2-1.8,2.7-2.2,4.6v13.2h-1V18.4h0.8l0.2,3.5v0.7
		c0.6-1.4,1.4-2.6,2.5-3.3c1.1-0.8,2.5-1.2,4.1-1.2c0.3,0,0.5,0,0.8,0.1c0.2,0,0.4,0.1,0.6,0.1L148.8,19.2z"/>
	<path d="M154.1,13v5.4h4.9v1h-4.9v13.9c0,1.6,0.3,2.8,0.8,3.5c0.6,0.7,1.3,1,2.2,1c0.3,0,0.6,0,0.9,0c0.3,0,0.6-0.1,1.1-0.1
		l0.2,0.9c-0.3,0.1-0.6,0.2-1,0.2s-0.7,0.1-1.1,0.1c-1.3,0-2.4-0.4-3.1-1.3c-0.7-0.9-1-2.3-1-4.2V19.5h-3.7v-1h3.7V13H154.1z"/>
	<path d="M175.4,34.8c-0.7,1.2-1.7,2.2-3.1,3c-1.4,0.8-3,1.1-5,1.1c-1.9,0-3.3-0.5-4.4-1.5c-1.1-1-1.6-2.4-1.6-4.1
		c0-1.7,0.8-3.1,2.4-4.2c1.6-1.1,3.6-1.7,6-1.7h5.7v-2.9c0-1.7-0.5-3-1.6-3.9c-1.1-0.9-2.6-1.4-4.5-1.4c-1.8,0-3.3,0.4-4.4,1.3
		c-1.1,0.9-1.7,2-1.7,3.4l-0.8,0l0-0.1c-0.1-1.6,0.5-2.9,1.8-4c1.3-1.1,3-1.6,5.1-1.6c2.2,0,3.9,0.5,5.2,1.6
		c1.3,1.1,1.9,2.7,1.9,4.7v10.1c0,0.7,0,1.4,0.1,2.1c0.1,0.7,0.2,1.3,0.4,2h-1.1c-0.2-0.9-0.3-1.5-0.3-2c-0.1-0.4-0.1-0.9-0.1-1.4
		V34.8z M167.3,37.9c2,0,3.7-0.4,5.1-1.3c1.4-0.9,2.4-2.1,3-3.8v-4.5h-5.7c-2.1,0-3.8,0.5-5.3,1.4c-1.4,1-2.1,2.1-2.1,3.6
		c0,1.3,0.5,2.5,1.4,3.3C164.6,37.5,165.8,37.9,167.3,37.9z"/>
	<path d="M183.1,12.1h-1V9.6h1V12.1z M183.1,38.5h-1V18.4h1V38.5z"/>
	<path d="M189.6,18.4l0.1,4c0.6-1.4,1.5-2.5,2.7-3.3c1.2-0.8,2.6-1.2,4.3-1.2c2.2,0,3.8,0.7,4.9,2.1c1.1,1.4,1.6,3.6,1.6,6.6v11.8
		h-1V26.7c0-2.8-0.5-4.7-1.5-5.9c-1-1.1-2.3-1.7-4.1-1.7c-2.1,0-3.7,0.6-4.8,1.8s-1.8,2.8-2.1,4.7v12.9h-1V28.2h-0.1
		c0-0.2,0-0.5,0-0.7c0-0.2,0-0.5,0-0.7v-8.3H189.6z"/>
	<path d="M210.7,13v5.4h4.9v1h-4.9v13.9c0,1.6,0.3,2.8,0.8,3.5c0.6,0.7,1.3,1,2.2,1c0.3,0,0.6,0,0.9,0c0.3,0,0.6-0.1,1.1-0.1
		l0.2,0.9c-0.3,0.1-0.6,0.2-1,0.2s-0.7,0.1-1.1,0.1c-1.3,0-2.4-0.4-3.1-1.3c-0.7-0.9-1-2.3-1-4.2V19.5H206v-1h3.7V13H210.7z"/>
	<path d="M224.7,34.9l0.7,2h0.1l0.1-0.3l6.9-18.1h1.1l-8.9,23.4c-0.5,1.4-1.2,2.6-1.9,3.4c-0.7,0.9-1.9,1.3-3.5,1.3
		c-0.2,0-0.5,0-0.8-0.1c-0.3,0-0.5-0.1-0.6-0.1l0.2-0.9c0.1,0,0.3,0.1,0.6,0.1c0.3,0,0.5,0.1,0.6,0.1c1.1,0,2-0.3,2.7-1
		c0.6-0.7,1.2-1.7,1.7-3l1.2-3.3l-8-20h1.1L224.7,34.9z"/>
</g>
</svg>
