<?xml version="1.0" encoding="utf-8"?>
<!-- Generator: Adobe Illustrator 21.0.0, SVG Export Plug-In . SVG Version: 6.00 Build 0)  -->
<svg version="1.1" id="图层_1" xmlns="http://www.w3.org/2000/svg" xmlns:xlink="http://www.w3.org/1999/xlink" x="0px" y="0px"
	 viewBox="0 0 234 51" style="enable-background:new 0 0 234 51;" xml:space="preserve">
<style type="text/css">
	.st0{fill:#F02A50;}
	.st1{fill:url(#SVGID_1_);}
	.st2{fill:#FFFFFF;}
</style>
<title>Group Copy 3</title>
<desc>Created with Sketch.</desc>
<g>
	<path class="st0" d="M33.1,32.1c0,7.7-6.3,14-14.1,14s-14.1-6.3-14.1-14H0.2c0,10.4,8.4,18.8,18.8,18.8s18.8-8.4,18.8-18.8H33.1z"
		/>
	<linearGradient id="SVGID_1_" gradientUnits="userSpaceOnUse" x1="-0.4564" y1="39.0304" x2="37.0112" y2="42.3084">
		<stop  offset="0" style="stop-color:#F02A50"/>
		<stop  offset="0.2" style="stop-color:#F02A50"/>
		<stop  offset="0.6054" style="stop-color:#B5203D"/>
		<stop  offset="0.6771" style="stop-color:#C22241"/>
		<stop  offset="0.8082" style="stop-color:#E3284C"/>
		<stop  offset="0.8541" style="stop-color:#F02A50"/>
		<stop  offset="1" style="stop-color:#F02A50"/>
	</linearGradient>
	<path class="st1" d="M33.1,32.1c0,7.7-6.3,14-14.1,14s-14.1-6.3-14.1-14H0.2c0,10.4,8.4,18.8,18.8,18.8s18.8-8.4,18.8-18.8H33.1z"
		/>
	<g>
		<path class="st0" d="M10,0C4.6,0,0.2,4.4,0.2,9.9v22.2h4.8V9.9c0-2.8,2.3-5.1,5.1-5.1s5.1,2.3,5.1,5.1v22.2h4.8V9.9
			C19.8,4.4,15.4,0,10,0z"/>
		<path class="st0" d="M42.9,0c-5.4,0-9.8,4.4-9.8,9.8v22.2h4.8V9.9c0-2.8,2.3-5.1,5.1-5.1c2.8,0,5.1,2.3,5.1,5.1v22.2h4.8V9.9
			C52.8,4.4,48.3,0,42.9,0z"/>
	</g>
	<path class="st0" d="M19.8,32.1c0,7.7,6.3,14,14.1,14S48,39.8,48,32.1h4.8c0,10.4-8.4,18.8-18.8,18.8s-18.8-8.4-18.8-18.8H19.8z"/>
</g>
<g>
	<path class="st2" d="M79.5,11.5v17.9c0,3-1,5.3-2.9,7s-4.4,2.5-7.5,2.5c-2.9,0-5.3-0.8-7.2-2.5c-1.9-1.7-2.8-4-2.8-6.9V11.5h3.7
		v17.9c0,2.1,0.6,3.7,1.8,4.9c1.2,1.2,2.7,1.8,4.6,1.8c2,0,3.6-0.6,4.8-1.8c1.2-1.2,1.9-2.8,1.9-4.9V11.5H79.5z"/>
	<path class="st2" d="M86.2,18.4l0.3,3c0.7-1.1,1.5-1.9,2.5-2.5c1-0.6,2.2-0.9,3.4-0.9c2.2,0,3.8,0.6,5,1.9c1.2,1.3,1.8,3.2,1.8,5.9
		v12.7h-3.7V25.9c0-1.8-0.3-3-1-3.8c-0.7-0.7-1.8-1.1-3.2-1.1c-1.1,0-2.1,0.2-2.9,0.7c-0.8,0.5-1.4,1.1-1.9,1.9v14.9h-3.7V18.4H86.2
		z"/>
	<path class="st2" d="M110.6,36c1.1,0,2.1-0.4,3-1.1c0.8-0.7,1.3-1.7,1.3-2.8h3.3l0.1,0.1c0,1.7-0.7,3.3-2.2,4.6
		c-1.5,1.3-3.3,2-5.3,2c-2.8,0-5-1-6.5-2.9c-1.5-1.9-2.3-4.3-2.3-7.2v-0.8c0-2.8,0.8-5.2,2.3-7.1c1.5-1.9,3.7-2.9,6.5-2.9
		c2.2,0,4.1,0.7,5.5,2.1c1.4,1.4,2.1,3.1,2.1,5.1l0,0.1h-3.3c0-1.2-0.4-2.3-1.2-3.1c-0.8-0.9-1.8-1.3-3-1.3c-1.8,0-3.1,0.7-3.9,2.1
		c-0.8,1.4-1.2,3.1-1.2,5.1v0.8c0,2,0.4,3.7,1.2,5.1C107.4,35.4,108.8,36,110.6,36z"/>
	<path class="st2" d="M128.9,38.9c-2.9,0-5.1-0.9-6.7-2.8c-1.6-1.8-2.4-4.3-2.4-7.3V28c0-2.9,0.8-5.3,2.5-7.2
		c1.7-1.9,3.7-2.8,6.1-2.8c2.7,0,4.7,0.8,6,2.5c1.3,1.7,2,3.9,2,6.7v1.9h-12.8l-0.1,0.1c0,2,0.4,3.7,1.3,4.9
		c0.9,1.3,2.3,1.9,4.1,1.9c1.2,0,2.3-0.2,3.3-0.5c0.9-0.4,1.7-0.8,2.4-1.5l1.4,2.4c-0.7,0.7-1.7,1.3-2.8,1.8
		C132,38.7,130.6,38.9,128.9,38.9z M128.3,20.9c-1.3,0-2.3,0.5-3.2,1.5c-0.8,1-1.3,2.2-1.5,3.8l0,0.1h9.1V26c0-1.5-0.4-2.7-1.1-3.6
		C130.9,21.4,129.8,20.9,128.3,20.9z"/>
	<path class="st2" d="M148.1,21.7l-1.9-0.1c-1,0-1.8,0.2-2.4,0.7c-0.7,0.5-1.2,1.1-1.5,1.9v14.3h-3.7V18.4h3.3l0.4,2.9
		c0.6-1,1.3-1.8,2.1-2.4c0.8-0.6,1.8-0.9,2.9-0.9c0.3,0,0.5,0,0.8,0.1c0.2,0,0.5,0.1,0.6,0.1L148.1,21.7z"/>
	<path class="st2" d="M155.4,13.6v4.8h3.8v2.7h-3.8v12.2c0,0.9,0.2,1.6,0.6,2c0.4,0.4,0.9,0.6,1.5,0.6c0.2,0,0.4,0,0.7-0.1
		c0.3-0.1,0.5-0.1,0.6-0.2l0.5,2.5c-0.3,0.2-0.7,0.4-1.2,0.5c-0.5,0.1-1.1,0.2-1.6,0.2c-1.5,0-2.7-0.4-3.5-1.3
		c-0.9-0.9-1.3-2.3-1.3-4.2V21.1h-3.2v-2.7h3.2v-4.8H155.4z"/>
	<path class="st2" d="M173.5,38.5c-0.1-0.6-0.2-1.1-0.3-1.6c-0.1-0.5-0.1-0.9-0.1-1.4c-0.7,1-1.6,1.8-2.7,2.4c-1.1,0.6-2.3,1-3.5,1
		c-2.1,0-3.7-0.5-4.8-1.6c-1.1-1.1-1.6-2.5-1.6-4.4c0-1.9,0.8-3.4,2.3-4.5c1.6-1.1,3.7-1.6,6.3-1.6h4v-2c0-1.2-0.4-2.1-1.1-2.8
		c-0.7-0.7-1.7-1-3-1c-1.2,0-2.1,0.3-2.9,0.9c-0.7,0.6-1.1,1.3-1.1,2.1l-3.5,0l0-0.1c-0.1-1.5,0.6-2.8,2-4c1.5-1.2,3.3-1.8,5.6-1.8
		c2.3,0,4.1,0.6,5.5,1.7c1.4,1.2,2.1,2.8,2.1,5v9.7c0,0.7,0,1.4,0.1,2.1s0.2,1.3,0.4,2H173.5z M167.5,35.8c1.3,0,2.5-0.3,3.6-1
		c1.1-0.7,1.8-1.5,2.1-2.3v-3.3H169c-1.5,0-2.7,0.4-3.5,1.1c-0.9,0.7-1.3,1.6-1.3,2.6c0,0.9,0.3,1.6,0.8,2.1S166.4,35.8,167.5,35.8z
		"/>
	<path class="st2" d="M184.1,13.3h-3.7V9.6h3.7V13.3z M184.1,38.5h-3.7V18.4h3.7V38.5z"/>
	<path class="st2" d="M191.1,18.4l0.3,3c0.7-1.1,1.5-1.9,2.5-2.5c1-0.6,2.2-0.9,3.4-0.9c2.2,0,3.8,0.6,5,1.9
		c1.2,1.3,1.8,3.2,1.8,5.9v12.7h-3.7V25.9c0-1.8-0.3-3-1-3.8c-0.7-0.7-1.8-1.1-3.2-1.1c-1.1,0-2.1,0.2-2.9,0.7
		c-0.8,0.5-1.4,1.1-1.9,1.9v14.9h-3.7V18.4H191.1z"/>
	<path class="st2" d="M212.7,13.6v4.8h3.8v2.7h-3.8v12.2c0,0.9,0.2,1.6,0.6,2c0.4,0.4,0.9,0.6,1.5,0.6c0.2,0,0.4,0,0.7-0.1
		c0.3-0.1,0.5-0.1,0.6-0.2l0.5,2.5c-0.3,0.2-0.7,0.4-1.2,0.5c-0.5,0.1-1.1,0.2-1.6,0.2c-1.5,0-2.7-0.4-3.5-1.3
		c-0.9-0.9-1.3-2.3-1.3-4.2V21.1h-3.2v-2.7h3.2v-4.8H212.7z"/>
	<path class="st2" d="M224.6,31.1l0.6,2.5h0.1l4.9-15.2h4.1l-8.4,23.2c-0.5,1.3-1.2,2.5-2.2,3.5c-0.9,1-2.2,1.5-3.8,1.5
		c-0.3,0-0.7,0-1.1-0.1c-0.5-0.1-0.8-0.1-1.1-0.2l0.4-2.9c-0.1,0,0.1,0,0.7,0c0.5,0,0.8,0.1,1,0.1c0.8,0,1.4-0.3,1.9-1
		c0.5-0.7,0.9-1.5,1.2-2.3l0.9-2.1l-7.5-19.7h4.1L224.6,31.1z"/>
</g>
</svg>
