<?xml version="1.0" encoding="utf-8"?>
<!-- Generator: Adobe Illustrator 21.0.0, SVG Export Plug-In . SVG Version: 6.00 Build 0)  -->
<svg version="1.1" id="图层_1" xmlns="http://www.w3.org/2000/svg" xmlns:xlink="http://www.w3.org/1999/xlink" x="0px" y="0px"
	 viewBox="0 0 51.3 51" style="enable-background:new 0 0 51.3 51;" xml:space="preserve">
<style type="text/css">
	.st0{fill:#F02A50;}
	.st1{fill:url(#SVGID_1_);}
	.st2{fill:#FFFFFF;}
	.st3{fill:url(#SVGID_2_);}
	.st4{fill:#1F42F0;}
</style>
<g>
	<linearGradient id="SVGID_1_" gradientUnits="userSpaceOnUse" x1="0.2558" y1="7.0916" x2="28.6889" y2="7.0916">
		<stop  offset="0" style="stop-color:#1F42F0"/>
		<stop  offset="0.3314" style="stop-color:#1F42F0"/>
		<stop  offset="0.373" style="stop-color:#1F42F0"/>
		<stop  offset="0.4703" style="stop-color:#1D3EE0"/>
		<stop  offset="0.6606" style="stop-color:#1832B6"/>
		<stop  offset="0.9234" style="stop-color:#0F1F73"/>
		<stop  offset="0.9514" style="stop-color:#0E1D6B"/>
	</linearGradient>
	<path class="st1" d="M20.9,13.9H7.3c-3.9,0-7-3.1-7-6.8s3.1-6.8,7-6.8h19.3c1.2,0,2.1,0.9,2.1,2.1s-0.9,2.1-2.1,2.1H7.3
		c-1.5,0-2.8,1.2-2.8,2.6s1.3,2.6,2.8,2.6h13.6c1.2,0,2.1,0.9,2.1,2.1S22,13.9,20.9,13.9z"/>
	<path class="st4" d="M25.8,51c-3.9,0-7-3.1-7-6.8V9.7c0-5.2,4.4-9.5,9.7-9.5h15.2c3.9,0,7,3.1,7,6.8s-3.1,6.8-7,6.8h-9.3
		c-0.9,0-1.7,0.7-1.7,1.6v28.7C32.8,47.9,29.6,51,25.8,51z M28.5,4.5c-3,0-5.5,2.4-5.5,5.3v34.4c0,1.4,1.3,2.6,2.8,2.6
		c1.5,0,2.8-1.2,2.8-2.6V15.5c0-3.2,2.7-5.8,5.9-5.8h9.3c1.5,0,2.8-1.2,2.8-2.6s-1.3-2.6-2.8-2.6H28.5z"/>
</g>
</svg>
